<?xml version="1.0" encoding="UTF-8" standalone="no"?>
<svg
   id="svg"
   version="1.1"
   width="500"
   height="300"
   sodipodi:docname="logo.svg"
   inkscape:version="1.3.2 (091e20e, 2023-11-25, custom)"
   inkscape:export-filename="logo.png"
   inkscape:export-xdpi="96"
   inkscape:export-ydpi="96"
   xmlns:inkscape="http://www.inkscape.org/namespaces/inkscape"
   xmlns:sodipodi="http://sodipodi.sourceforge.net/DTD/sodipodi-0.dtd"
   xmlns="http://www.w3.org/2000/svg"
   xmlns:svg="http://www.w3.org/2000/svg">
  <defs
     id="defs1">
    <inkscape:path-effect
       effect="fillet_chamfer"
       id="path-effect4"
       is_visible="true"
       lpeversion="1"
       nodesatellites_param="F,0,0,1,0,20,0,1 @ F,0,0,1,0,20,0,1 @ F,0,0,1,0,20,0,1 @ F,0,0,1,0,20,0,1"
       radius="20"
       unit="px"
       method="auto"
       mode="F"
       chamfer_steps="1"
       flexible="false"
       use_knot_distance="true"
       apply_no_radius="true"
       apply_with_radius="true"
       only_selected="false"
       hide_knots="false" />
    <rect
       x="500.24554"
       y="586.58929"
       width="210.37723"
       height="572.88391"
       id="rect3" />
    <rect
       x="221.34152"
       y="468.72321"
       width="445.4241"
       height="66.470985"
       id="rect1" />
  </defs>
  <sodipodi:namedview
     id="namedview1"
     pagecolor="#ffffff"
     bordercolor="#000000"
     borderopacity="0.25"
     inkscape:showpageshadow="2"
     inkscape:pageopacity="0.0"
     inkscape:pagecheckerboard="0"
     inkscape:deskcolor="#d1d1d1"
     inkscape:zoom="2.9185668"
     inkscape:cx="451.4202"
     inkscape:cy="210.71987"
     inkscape:window-width="3840"
     inkscape:window-height="2050"
     inkscape:window-x="-12"
     inkscape:window-y="-12"
     inkscape:window-maximized="1"
     inkscape:current-layer="svg" />
  <path
     style="fill:#ededed;fill-opacity:1;stroke-width:1.189;stroke-dasharray:none"
     id="rect4"
     width="367.30356"
     height="296.72098"
     x="-436.51569"
     y="-297.7489"
     transform="matrix(-1.1016791,0,0,-1,-32.392338,0.3984374)"
     inkscape:path-effect="#path-effect4"
     sodipodi:type="rect"
     d="m -416.51569,-297.7489 h 327.303562 a 20,20 45 0 1 20,20 v 256.720976 a 20,20 135 0 1 -20,20.0000004 H -416.51569 a 20,20 45 0 1 -20,-20.0000004 V -277.7489 a 20,20 135 0 1 20,-20 z" />
  <path
     d="m 175.521,15.058183 c -0.35501,0.581191 -0.36611,2.896311 -0.31386,66.222958 0.0455,55.341659 0.11918,63.475529 0.57941,63.935759 0.29024,0.29025 1.37711,0.64131 2.41567,0.78019 3.49993,0.46856 35.03629,5.3687 58.88108,32.48643 1.97336,2.24462 3.54265,3.74448 3.72552,3.56161 0.18145,-0.18145 0.27271,-25.49528 0.21366,-59.34024 l -0.10271,-59.023867 -0.797,-2.49227 C 234.19665,42.653141 213.93786,25.326081 189.57419,17.954852 180.76179,15.288657 175.9816,14.30342 175.521,15.058183 m 138.95286,0.01397 c -1.73428,0.279146 -8.43627,1.91322 -10.55741,2.574222 -9.16958,2.856943 -18.22499,7.166521 -25.94622,12.348603 -9.9118,6.651895 -18.90924,16.864678 -23.61462,26.804405 -3.29965,6.969694 -3.06201,1.542456 -2.93963,67.172417 0.0591,31.78213 0.15676,57.835 0.21723,57.89548 0.306,0.30597 1.29125,-0.53432 3.00405,-2.56206 3.19192,-3.77885 8.22048,-8.7054 12.21046,-11.9621 9.23329,-7.53657 22.61901,-15.15222 31.87948,-18.13693 1.08259,-0.34894 2.08679,-0.81203 2.23138,-1.02892 0.14458,-0.21722 0.26518,-17.48594 0.26841,-38.37568 0.005,-30.500936 0.0958,-38.055761 0.46523,-38.362461 0.70288,-0.582985 6.52556,-0.652054 7.20876,-0.08517 0.50497,0.419079 0.56259,4.253022 0.56259,37.419811 0,30.27655 0.0859,37.02398 0.47526,37.34715 0.34785,0.2888 1.37676,0.25087 3.84719,-0.14137 2.63899,-0.41906 3.51902,-0.7093 4.04833,-1.33452 0.65956,-0.7791 0.67137,-2.39564 0.46703,-64.799325 -0.15818,-48.299322 -0.31278,-64.124362 -0.63094,-64.507648 -0.40727,-0.490655 -1.3263,-0.56724 -3.19658,-0.265904 m -164.63781,6.647593 c -1.16669,0.588351 -1.81372,1.235393 -2.40208,2.402081 -0.75119,1.489493 -0.80523,2.055297 -0.80523,8.431265 0,4.904374 -0.12633,7.006194 -0.44735,7.442809 -0.24587,0.334613 -1.97728,1.265455 -3.8472,2.068531 -1.86991,0.803087 -4.71433,2.332296 -6.32049,3.39806 -5.99447,3.977828 -11.0631,11.223079 -13.08227,18.700601 -0.71897,2.66155 -0.73758,3.464628 -0.66815,28.50612 0.0676,24.427027 0.10879,25.925457 0.79127,28.809237 0.87608,3.70369 3.64678,9.34135 6.11473,12.4431 3.10566,3.90267 9.44082,8.29563 14.05961,9.74861 0.78733,0.24765 1.86634,0.6703 2.39743,0.93908 l 0.96627,0.48885 0.10738,14.94145 c 0.0958,13.29913 0.17499,15.0649 0.72039,16.06052 0.92619,1.69205 2.74995,2.23424 8.97776,2.66905 6.31369,0.44128 15.917,1.55213 20.29243,2.34804 10.65047,1.93721 20.09811,4.14245 26.66197,6.22388 1.96833,0.62414 4.46454,1.41684 5.54712,1.76147 13.10015,4.17037 25.34104,10.4837 33.64383,17.35319 3.69115,3.05342 3.93451,3.16435 5.21428,2.37774 0.57475,-0.35358 2.32299,-1.70886 3.88441,-3.0119 5.83057,-4.86536 12.86396,-9.05934 20.77774,-12.3894 5.98408,-2.51804 16.85465,-6.23031 23.10142,-7.88944 12.59519,-3.3451 28.91624,-6.05245 39.88845,-6.61754 4.96915,-0.25589 7.8422,-0.74761 9.0708,-1.55283 1.77257,-1.16133 1.84451,-1.8327 1.84451,-17.19178 0,-16.21405 -0.19147,-15.18694 3.04197,-16.325 4.93514,-1.73642 10.85625,-5.99339 14.26755,-10.2568 2.30187,-2.877 4.3654,-6.65619 5.71137,-10.45829 0.77339,-2.18557 0.77804,-2.36522 0.77804,-30.113354 0,-31.510513 0.24586,-28.595954 -2.96789,-35.165535 -1.9762,-4.039373 -5.91966,-8.916546 -9.07974,-11.228807 -1.24721,-0.912945 -3.87798,-2.508011 -5.84632,-3.54478 -1.96832,-1.037135 -4.08482,-2.257862 -4.70323,-2.71308 l -1.1241,-0.827776 -0.12847,-6.731343 c -0.12097,-6.346619 -0.1793,-6.830473 -1.02283,-8.468844 -1.21749,-2.364143 -2.70055,-3.157564 -5.59399,-2.992225 -1.9186,0.109515 -2.43501,0.308495 -4.11561,1.586123 -1.05681,0.803435 -2.20597,1.953661 -2.55347,2.555612 -0.69929,1.211778 -0.57797,1.396084 1.34455,2.038834 0.77409,0.258744 1.13411,0.655632 1.29982,1.431511 0.37863,1.773649 0.35465,136.734744 -0.0243,137.731794 -0.28522,0.75012 -0.63702,0.9219 -2.23673,1.0944 -1.0443,0.11237 -4.23371,0.45235 -7.08779,0.75547 -11.16654,1.18638 -20.11709,2.72419 -29.24085,5.02498 -8.61844,2.17303 -18.43076,5.22503 -23.18838,7.21198 -1.18101,0.49351 -3.11356,1.30231 -4.29456,1.79798 -6.82188,2.86195 -14.95432,7.5838 -19.45428,11.29536 -1.50381,1.24041 -2.9321,2.37488 -3.1744,2.52126 -0.27341,0.1657 -1.49306,-0.63309 -3.2209,-2.11005 -8.25304,-7.05236 -18.71133,-12.09487 -36.30214,-17.50278 -16.07055,-4.94087 -24.3719,-6.61753 -41.95593,-8.47456 -5.12625,-0.54111 -8.00502,-0.99454 -8.32068,-1.3102 -0.68318,-0.68319 -0.71252,-136.855708 -0.0297,-138.172337 0.24301,-0.468824 1.00386,-1.032482 1.69026,-1.252578 0.68642,-0.220098 1.29982,-0.669233 1.36281,-0.997766 0.0665,-0.3475 -0.70825,-1.420777 -1.84988,-2.562056 -1.51025,-1.510248 -2.41675,-2.096095 -3.92306,-2.533781 -2.5116,-0.730069 -2.64401,-0.723275 -4.54613,0.235844 m -6.33733,29.237621 c -2.37451,1.091531 -4.69607,2.796464 -7.5473,5.542829 -2.84228,2.737775 -4.60733,5.859547 -5.41183,9.570747 -0.2906,1.340973 -0.40799,9.270494 -0.39583,26.791891 0.0187,27.782116 -0.11917,26.117276 2.62755,31.736316 1.12839,2.30797 2.01665,3.5219 3.82072,5.22182 3.10997,2.92995 6.50624,4.95161 8.69287,5.17456 1.87384,0.19075 2.61646,-0.2004 3.21411,-1.6924 0.23942,-0.59836 0.36037,-14.60825 0.35324,-40.952078 -0.0108,-39.0664 -0.0279,-40.065597 -0.70539,-40.977122 -0.89111,-1.198888 -2.61181,-1.353132 -4.64814,-0.416563 m 201.4925,0.271628 c -0.59801,0.912594 -0.63453,3.297848 -0.63453,41.440218 0,37.321027 0.0469,40.543367 0.60197,41.390477 1.30053,1.98478 3.74806,1.51417 7.80819,-1.5013 3.32075,-2.46615 5.82805,-5.1728 7.30466,-7.88515 2.62719,-4.82636 2.48368,-3.1436 2.62504,-30.741431 0.14208,-27.757789 0.11524,-28.144661 -2.26178,-32.444576 -3.12251,-5.647325 -9.74577,-11.22666 -13.32778,-11.22666 -1.21499,0 -1.59506,0.17393 -2.11577,0.968422 m 3.58844,1.408969 v 0"
     stroke="none"
     fill="#000000"
     fill-rule="evenodd"
     id="path1"
     sodipodi:nodetypes="ccsccscccsccccccsscsccccsccssscccscscccccsccccccsscccscscscccsccccccccsccccccccccccccscsccccccccccccccccssccccsccc"
     style="fill:#1c1c1c;fill-opacity:1;stroke-width:0.357878" />
  <text
     xml:space="preserve"
     style="font-style:normal;font-variant:normal;font-weight:normal;font-stretch:normal;font-size:42.3861px;line-height:0.9;font-family:helvetica;-inkscape-font-specification:helvetica;word-spacing:-0.567668px;fill:#151515;fill-opacity:1;stroke-width:0.567668"
     x="103.4606"
     y="254.18394"
     id="text2"><tspan
       sodipodi:role="line"
       id="tspan2"
       x="103.4606"
       y="254.18394"
       style="font-style:normal;font-variant:normal;font-weight:bold;font-stretch:normal;font-family:helvetica;-inkscape-font-specification:'helvetica Bold';fill:#151515;fill-opacity:1;stroke-width:0.567668">BOOKMAKER</tspan></text>
  <text
     xml:space="preserve"
     style="font-style:normal;font-variant:normal;font-weight:normal;font-stretch:normal;font-size:23.3439px;line-height:0.9;font-family:helvetica;-inkscape-font-specification:helvetica;word-spacing:-0.729499px;fill:#616161;fill-opacity:1;stroke-width:0.729499"
     x="104.86532"
     y="278.8187"
     id="text2-1"><tspan
       sodipodi:role="line"
       id="tspan2-5"
       x="104.86532"
       y="278.8187"
       style="font-style:normal;font-variant:normal;font-weight:normal;font-stretch:normal;font-size:23.3439px;font-family:helvetica;-inkscape-font-specification:helvetica;fill:#616161;fill-opacity:1;stroke-width:0.729499">make your own audiobooks</tspan></text>
  <text
     xml:space="preserve"
     id="text3"
     style="font-style:normal;font-variant:normal;font-weight:normal;font-stretch:normal;font-size:32px;line-height:0.9;font-family:helvetica;-inkscape-font-specification:helvetica;word-spacing:-1px;white-space:pre;shape-inside:url(#rect3);display:inline;fill:#000000"
     transform="matrix(0.5060228,0,0,0.5060228,46.686676,-3.9169966)" />
</svg>
